<svg width="24" height="24" viewBox="0 0 24 24" fill="none" xmlns="http://www.w3.org/2000/svg">
<path d="M10.1172 17.9867H2.88306" stroke="#474B52" stroke-width="1.5" stroke-linecap="round" stroke-linejoin="round"/>
<path fill-rule="evenodd" clip-rule="evenodd" d="M21.1179 17.9869C21.1179 19.5775 19.8285 20.8669 18.2379 20.8669C16.6473 20.8669 15.3579 19.5775 15.3579 17.9869C15.3579 16.3952 16.6473 15.1069 18.2379 15.1069C19.8285 15.1069 21.1179 16.3952 21.1179 17.9869Z" stroke="#474B52" stroke-width="1.5" stroke-linecap="round" stroke-linejoin="round"/>
<path d="M13.8827 6.26255H21.118" stroke="#474B52" stroke-width="1.5" stroke-linecap="round" stroke-linejoin="round"/>
<path fill-rule="evenodd" clip-rule="evenodd" d="M2.88257 6.26232C2.88257 7.85409 4.17198 9.14232 5.76257 9.14232C7.35316 9.14232 8.64257 7.85409 8.64257 6.26232C8.64257 4.67174 7.35316 3.38232 5.76257 3.38232C4.17198 3.38232 2.88257 4.67174 2.88257 6.26232Z" stroke="#474B52" stroke-width="1.5" stroke-linecap="round" stroke-linejoin="round"/>
</svg>
